# xmcd
#
# Track frame offsets: 
#        182
#        12383
#        23625
#        36960
#        49685
#        62185
#        73650
#        85501
#        97430
#        111190
#        123872
#        135582
#        146617
#        159347
#        169682
#        182533
#        192851
#        205045
#        216720
#        228239
#        240459
#
# Disc length: 3355 seconds
#
# Revision: 1
# Processed by: cddbd v1.5.2PL0 Copyright (c) Steve Scherf et al.
# Submitted via: ExactAudioCopyFreeDBPlugin 1.0
#
DISCID=240d1915
DTITLE=Ray Charles - The Chronological Ray Charles, 1949-1950 (Classic
DTITLE=s Blues and Rhythm Series)
DYEAR=1990
DGENRE=Rhythm and Blues
TTITLE0=I Love You, I love You
TTITLE1=Confession Blues
TTITLE2=Alone in This City
TTITLE3=Can Anyone Ask for More
TTITLE4=Rockin' Chair Blues
TTITLE5=Here I Am
TTITLE6=If I Give You My Love
TTITLE7=Can't You See Darling
TTITLE8=This Love of Mine
TTITLE9=Blues Before Sunrise
TTITLE10=How Long Blues
TTITLE11=A Sentimental Blues
TTITLE12=You'll Always Miss the Water
TTITLE13=Ain't That Fine
TTITLE14=Don't Put All Your Dreams in One Basket
TTITLE15=Sittin' on Top of the World
TTITLE16=I've Had My Fun
TTITLE17=See See Rider
TTITLE18=What Have I Done
TTITLE19=Honey Honey
TTITLE20=She's on the Ball
EXTD=
EXTT0=
EXTT1=
EXTT2=
EXTT3=
EXTT4=
EXTT5=
EXTT6=
EXTT7=
EXTT8=
EXTT9=
EXTT10=
EXTT11=
EXTT12=
EXTT13=
EXTT14=
EXTT15=
EXTT16=
EXTT17=
EXTT18=
EXTT19=
EXTT20=
PLAYORDER=
